<mxfile host="app.diagrams.net" agent="Mozilla/5.0 (Windows NT 10.0; Win64; x64) AppleWebKit/537.36 (KHTML, like Gecko) Chrome/136.0.0.0 Safari/537.36" version="27.0.9">
  <diagram name="Page-1" id="FY96tSMim3YBWo0HmoBz">
    <mxGraphModel dx="1439" dy="806" grid="1" gridSize="10" guides="1" tooltips="1" connect="1" arrows="1" fold="1" page="1" pageScale="1" pageWidth="827" pageHeight="583" math="0" shadow="0">
      <root>
        <mxCell id="0" />
        <mxCell id="1" parent="0" />
        <mxCell id="8oHz8B8vt7DuY_inNpPZ-2" value="Slot 0" style="rounded=1;whiteSpace=wrap;html=1;" parent="1" vertex="1">
          <mxGeometry x="50" y="200" width="50" height="30" as="geometry" />
        </mxCell>
        <mxCell id="8oHz8B8vt7DuY_inNpPZ-3" value="Slot 1" style="rounded=1;whiteSpace=wrap;html=1;" parent="1" vertex="1">
          <mxGeometry x="50" y="290" width="50" height="30" as="geometry" />
        </mxCell>
        <mxCell id="8oHz8B8vt7DuY_inNpPZ-4" value="Sampling" style="rounded=0;whiteSpace=wrap;html=1;" parent="1" vertex="1">
          <mxGeometry x="140" y="200" width="70" height="30" as="geometry" />
        </mxCell>
        <mxCell id="8oHz8B8vt7DuY_inNpPZ-5" value="Sampling" style="rounded=0;whiteSpace=wrap;html=1;" parent="1" vertex="1">
          <mxGeometry x="140" y="292" width="70" height="30" as="geometry" />
        </mxCell>
        <mxCell id="8oHz8B8vt7DuY_inNpPZ-7" value="no car" style="ellipse;whiteSpace=wrap;html=1;aspect=fixed;" parent="1" vertex="1">
          <mxGeometry x="250" y="190" width="50" height="50" as="geometry" />
        </mxCell>
        <mxCell id="8oHz8B8vt7DuY_inNpPZ-8" value="sample each 2 mins" style="rounded=1;whiteSpace=wrap;html=1;" parent="1" vertex="1">
          <mxGeometry x="330" y="190" width="110" height="50" as="geometry" />
        </mxCell>
        <mxCell id="8oHz8B8vt7DuY_inNpPZ-9" value="car" style="ellipse;whiteSpace=wrap;html=1;aspect=fixed;" parent="1" vertex="1">
          <mxGeometry x="250" y="282" width="50" height="50" as="geometry" />
        </mxCell>
        <mxCell id="8oHz8B8vt7DuY_inNpPZ-11" value="sample each 5 mins" style="rounded=1;whiteSpace=wrap;html=1;" parent="1" vertex="1">
          <mxGeometry x="330" y="282" width="110" height="50" as="geometry" />
        </mxCell>
        <mxCell id="8oHz8B8vt7DuY_inNpPZ-12" value="Sleep 2 mins" style="rounded=0;whiteSpace=wrap;html=1;direction=south;" parent="1" vertex="1">
          <mxGeometry x="480" y="202" width="60" height="120" as="geometry" />
        </mxCell>
        <mxCell id="8oHz8B8vt7DuY_inNpPZ-13" value="Sample" style="rounded=1;whiteSpace=wrap;html=1;" parent="1" vertex="1">
          <mxGeometry x="570" y="190" width="110" height="50" as="geometry" />
        </mxCell>
        <mxCell id="8oHz8B8vt7DuY_inNpPZ-14" value="no car" style="ellipse;whiteSpace=wrap;html=1;aspect=fixed;" parent="1" vertex="1">
          <mxGeometry x="710" y="190" width="50" height="50" as="geometry" />
        </mxCell>
        <mxCell id="8oHz8B8vt7DuY_inNpPZ-15" value="don&#39;t sample&lt;br&gt;3 mins left" style="rounded=1;whiteSpace=wrap;html=1;" parent="1" vertex="1">
          <mxGeometry x="570" y="272" width="110" height="50" as="geometry" />
        </mxCell>
        <mxCell id="8oHz8B8vt7DuY_inNpPZ-17" value="Sleep 2 mins" style="rounded=0;whiteSpace=wrap;html=1;direction=south;" parent="1" vertex="1">
          <mxGeometry x="790" y="200" width="60" height="120" as="geometry" />
        </mxCell>
        <mxCell id="8oHz8B8vt7DuY_inNpPZ-18" value="Sample" style="rounded=1;whiteSpace=wrap;html=1;" parent="1" vertex="1">
          <mxGeometry x="880" y="188" width="110" height="50" as="geometry" />
        </mxCell>
        <mxCell id="8oHz8B8vt7DuY_inNpPZ-19" value="no car" style="ellipse;whiteSpace=wrap;html=1;aspect=fixed;" parent="1" vertex="1">
          <mxGeometry x="1020" y="188" width="50" height="50" as="geometry" />
        </mxCell>
        <mxCell id="8oHz8B8vt7DuY_inNpPZ-20" value="don&#39;t sample&lt;br&gt;1 min left" style="rounded=1;whiteSpace=wrap;html=1;" parent="1" vertex="1">
          <mxGeometry x="880" y="270" width="110" height="50" as="geometry" />
        </mxCell>
        <mxCell id="8oHz8B8vt7DuY_inNpPZ-21" value="Minimum: 2 &amp;lt; 3" style="text;html=1;align=center;verticalAlign=middle;resizable=0;points=[];autosize=1;strokeColor=none;fillColor=none;" parent="1" vertex="1">
          <mxGeometry x="570" y="340" width="110" height="30" as="geometry" />
        </mxCell>
        <mxCell id="8oHz8B8vt7DuY_inNpPZ-26" value="Minimum: 1 &amp;lt; 2" style="text;html=1;align=center;verticalAlign=middle;resizable=0;points=[];autosize=1;strokeColor=none;fillColor=none;" parent="1" vertex="1">
          <mxGeometry x="880" y="340" width="110" height="30" as="geometry" />
        </mxCell>
        <mxCell id="8oHz8B8vt7DuY_inNpPZ-27" value="Minimum: 2 &amp;lt; 5" style="text;html=1;align=center;verticalAlign=middle;resizable=0;points=[];autosize=1;strokeColor=none;fillColor=none;" parent="1" vertex="1">
          <mxGeometry x="330" y="340" width="110" height="30" as="geometry" />
        </mxCell>
        <mxCell id="8oHz8B8vt7DuY_inNpPZ-28" value="Sleep 1 min" style="rounded=0;whiteSpace=wrap;html=1;direction=south;" parent="1" vertex="1">
          <mxGeometry x="1090" y="200" width="60" height="120" as="geometry" />
        </mxCell>
      </root>
    </mxGraphModel>
  </diagram>
</mxfile>
